<svg xmlns="http://www.w3.org/2000/svg" viewBox="0 0 203.88 199.02"><title>profile-character-2</title><g id="Layer_2" data-name="Layer 2"><circle cx="99.51" cy="99.51" r="99.51" fill="#d6d6d6"/></g><g id="Layer_1" data-name="Layer 1"><path d="M70.83,44.94a93.87,93.87,0,0,0-19.68,6.78c-1-4.07.42-6.3,5.42-8.73,4-1.54,8.66-.55,12.27-3.44C72.27,40.32,70.33,43.08,70.83,44.94Z" transform="translate(-0.48 -0.98)" fill="#070908"/><path d="M64.27,34l2.1.3a15.16,15.16,0,0,0,2.47,5.23c-3.61,2.89-8.29,1.9-12.27,3.44C57.27,38.39,61,36.4,64.27,34Z" transform="translate(-0.48 -0.98)" fill="#6e7872"/><path d="M40.16,75.22a8.81,8.81,0,0,0,1.87.93c4.23,1,3.32,2.37.33,3.93-1.69.47-2.76-1.53-4.44-1.12C37.78,77.18,39,76.21,40.16,75.22Z" transform="translate(-0.48 -0.98)" fill="#76817b"/><path d="M41.25,69.72c1.86.54,4.91,1.69,4.59,2.77-.65,2.17-3.74,1.59-5.74,2.37C40.12,73.07,40.08,71.26,41.25,69.72Z" transform="translate(-0.48 -0.98)" fill="#6a736e"/><path d="M109.87,173.83A27.38,27.38,0,0,1,92.26,169a32.85,32.85,0,0,0-19.4-6.23c-2.63,0-5.25-.89-7.87-1.38-1.66-.3-3.31-.63-3.41-2.13-.1-1.34,1.17-2.08,2.55-2.8,7-3.62,16-3.27,21.35,1.67,4.68,4.3,10.87,6.15,17.73,7.62,7.81,1.67,15.81,2.81,23.82,3.87,1,.13,2.46.11,2.64.84s-1.1,1.12-2.08,1.42C122.51,173.42,117.1,173.74,109.87,173.83Z" transform="translate(-0.48 -0.98)" fill="#121516"/><path d="M57.78,105.53l3.28.51c.54.3,1.06.26,1.14-.41a1.26,1.26,0,0,0-1.2-1.44L58,101l2.06-.32c3.78,2.56,7.42,5.34,11.65,7.18l0,1.54c-3.35.59-6.74,1-10,1.81-2.24.53-2.17.31-1.43-1.74.5-1.37-2.08-1.67-2.54-3.09A.81.81,0,0,0,57.78,105.53Z" transform="translate(-0.48 -0.98)" fill="#1f2424"/><path d="M100.07,135.86a1.18,1.18,0,0,1-1.28-.69c-.2-.61.3-1,.72-1.29a14.54,14.54,0,0,1,3-2.3c1.29-.57,1.12-4.1,3.09-2.19,1.47,1.41.18,3.81-1.47,5.15A6,6,0,0,1,100.07,135.86Z" transform="translate(-0.48 -0.98)" fill="#7e8881"/><path d="M47.75,86.62a11.8,11.8,0,0,1,3.93-6.82c1.06,3.31.57,6.73.59,10.11l0,0C50.76,88.8,50.82,85.6,47.75,86.62Z" transform="translate(-0.48 -0.98)" fill="#96999a"/><path d="M71.69,109.42l0-1.54c2.65-.41,5.13-1.77,7.91-1.47a4,4,0,0,1,0,1A14.83,14.83,0,0,1,71.69,109.42Z" transform="translate(-0.48 -0.98)" fill="#96999a"/><path d="M90.68,109.56l1,1A6.42,6.42,0,0,1,86.09,114a1.23,1.23,0,0,1-.78-.53C86.26,111,88.82,110.76,90.68,109.56Z" transform="translate(-0.48 -0.98)" fill="#858f88"/><path d="M79.6,107.39a4,4,0,0,0,0-1c1.57-1.41,3.56-1.71,5.52-2.07l0,1.88A8.89,8.89,0,0,1,79.6,107.39Z" transform="translate(-0.48 -0.98)" fill="#7e8881"/><path d="M85.17,106.22l0-1.88,3.3-1.12c0,.63-.07,1.26-.1,1.88A4.72,4.72,0,0,1,85.17,106.22Z" transform="translate(-0.48 -0.98)" fill="#57605d"/><path d="M56.37,98.94c-1.38-1.22-2.29-2.65-1.92-4.61l-.08.06c1.59.71,2,2.38,2.92,3.61Z" transform="translate(-0.48 -0.98)" fill="#76817b"/><path d="M54.45,94.33c-2.19-.73-2.33-2.5-2.22-4.4l0,0c2,.89,2.17,2.62,2.1,4.48Z" transform="translate(-0.48 -0.98)" fill="#96999a"/><path d="M60.06,100.7,58,101a2.67,2.67,0,0,1-1.63-2.08l.92-.94C58.25,98.86,59.61,99.31,60.06,100.7Z" transform="translate(-0.48 -0.98)" fill="#76817b"/><path d="M61,104.19a1.26,1.26,0,0,1,1.2,1.44c-.08.67-.6.71-1.14.41Z" transform="translate(-0.48 -0.98)" fill="#96999a"/><path d="M57.78,105.53a.81.81,0,0,1-.1.87c-.48-.06-1-.18-.71-.81C57,105.48,57.5,105.54,57.78,105.53Z" transform="translate(-0.48 -0.98)" fill="#5e6862"/><path d="M60.06,100.7c-.45-1.39-1.81-1.84-2.77-2.7-.94-1.23-1.33-2.9-2.92-3.61.07-1.86-.11-3.59-2.1-4.48,0-3.38.47-6.8-.59-10.11,1.12-3.71.85-7.84,3.57-10.08,4.31-3.53,12.51-4.21,17.6-6.51,4.33-.07,7.57,2.18,10.64,4.87,1.21,1.06,1.79,2.8,3.56,3.22.32.84.15,2,1.32,2.31l-.15-.06c1,4.19,2.33,8.33,3,12.58C92.08,92,92.51,98,88.44,103.22l-3.3,1.12c-2,.36-4,.66-5.52,2.07-2.78-.3-5.26,1.06-7.91,1.47C67.48,106,63.84,103.26,60.06,100.7ZM79.69,84.46c-.08-1-.08-1.74-.2-2.46-.25-1.44-.32-3.45-1.55-3.91-1.84-.71-2.08,1.55-2.79,2.67-1.58,2.46-3.17,2.78-5.06.37-1-1.3-2.17-2.48-2.64-4.11-.19-.67-.26-1.57-1.19-1.5s-1,1-1,1.69c-.08,3.47-.22,6.93.75,10.33,1.6,5.64,2.34,5.94,7.1,2.81a20.62,20.62,0,0,1,4.23-2.48C79.3,87.19,80,86.11,79.69,84.46Z" transform="translate(-0.48 -0.98)" fill="#f8f8f8"/><path d="M88.37,73.61c-1.17-.35-1-1.47-1.32-2.31A2.43,2.43,0,0,1,88.37,73.61Z" transform="translate(-0.48 -0.98)" fill="#121516"/><path d="M79.69,84.46c.33,1.65-.39,2.73-2.31,3.41a20.62,20.62,0,0,0-4.23,2.48c-4.76,3.13-5.5,2.83-7.1-2.81-1-3.4-.83-6.86-.75-10.33,0-.66,0-1.62,1-1.69s1,.83,1.19,1.5c.47,1.63,1.64,2.81,2.64,4.11,1.89,2.41,3.48,2.09,5.06-.37.71-1.12.95-3.38,2.79-2.67,1.23.46,1.3,2.47,1.55,3.91C79.61,82.72,79.61,83.46,79.69,84.46Z" transform="translate(-0.48 -0.98)" fill="#313737"/><path d="M63,55.14c1.11,1.65,1.73,3.73,3.7,4.62,1.07.48,2.7,1.69,3.36.15,1.6-3.75,3-1.52,4,.08,2.25,3.78,6.34,4.69,9.66,6.81,2,1.29,5.49,2.19,3.22,6A62.65,62.65,0,0,0,70.64,69.3c-3.51-.27-7.14-1-10.5.85a11.9,11.9,0,0,0-7.55,2.24l-.48.24c-.16.08-.38.28-.46.23-1-.62-.06-1.24.18-1.65,1.14-1.88,2.38-3.43-.82-4.82-1.65-.72-1.43-1.23,2.18-2.45,3.25.93,4.85.56,2.48-3.07a9.06,9.06,0,0,1-.72-2l.21-.3c2,.81,3.83,3.36,5.79,2.24,1-.57-.43-3.5-1.42-5.17C60.55,54.55,61.61,53.67,63,55.14Z" transform="translate(-0.48 -0.98)" fill="#121516"/></g><g id="Layer_4" data-name="Layer 4"><path d="M156.66,19.2" transform="translate(-0.48 -0.98)" fill="#6e7872"/><path d="M126.31,44.94A93.68,93.68,0,0,1,146,51.72c1-4.07-.42-6.3-5.42-8.73-4-1.54-8.66-.55-12.26-3.44C124.87,40.32,126.82,43.08,126.31,44.94Z" transform="translate(-0.48 -0.98)" fill="#070908"/><path d="M132.87,34l-2.1.3a15.32,15.32,0,0,1-2.46,5.23c3.6,2.89,8.28,1.9,12.26,3.44C139.88,38.39,136.15,36.4,132.87,34Z" transform="translate(-0.48 -0.98)" fill="#6e7872"/><path d="M157,75.22a8.58,8.58,0,0,1-1.87.93c-4.23,1-3.32,2.37-.33,3.93,1.69.47,2.76-1.53,4.44-1.12C159.36,77.18,158.15,76.21,157,75.22Z" transform="translate(-0.48 -0.98)" fill="#76817b"/><path d="M155.89,69.72c-1.86.54-4.91,1.69-4.58,2.77.64,2.17,3.73,1.59,5.73,2.37C157,73.07,157.06,71.26,155.89,69.72Z" transform="translate(-0.48 -0.98)" fill="#6a736e"/><path d="M108.91,96.84c.6.29,1.24.55,1.15,1.4,4.39-.17,8.49,1.28,12.66,2.28,0-.72-.07-1.44-.11-2.16-4.67-6-4.18-12.85-3.16-19.64.73-4.88,2.25-9.64,3.42-14.46-4.54,1.95-4.71,7-7.39,10.27-.72.86-.92,6.15-3.51.79-.66-1.37-1.69,0-1.76,1.08A57.49,57.49,0,0,0,111,88.89c.3,2,2.3,5.23-2,6C109,95.53,109,96.19,108.91,96.84Z" transform="translate(-0.48 -0.98)" fill="#121516"/><path d="M139.36,105.53l-3.28.51c-.54.3-1.06.26-1.14-.41a1.27,1.27,0,0,1,1.2-1.44l3-3.17-2.06-.32c-3.78,2.56-7.42,5.34-11.64,7.18v1.54c3.36.59,6.74,1,10,1.81,2.23.53,2.16.31,1.42-1.74-.5-1.37,2.08-1.67,2.54-3.09A.81.81,0,0,1,139.36,105.53Z" transform="translate(-0.48 -0.98)" fill="#1f2424"/><path d="M149.39,86.62a11.84,11.84,0,0,0-3.92-6.82c-1.07,3.31-.57,6.73-.6,10.11l0,0C146.39,88.8,146.32,85.6,149.39,86.62Z" transform="translate(-0.48 -0.98)" fill="#96999a"/><path d="M125.45,109.42v-1.54c-2.66-.41-5.14-1.77-7.92-1.47a4.58,4.58,0,0,0,0,1A14.83,14.83,0,0,0,125.45,109.42Z" transform="translate(-0.48 -0.98)" fill="#96999a"/><path d="M106.25,107.35l-1.19,1.17a7.36,7.36,0,0,0,6.46,3.88,1.48,1.48,0,0,0,.9-.6C111.33,109,108.39,108.72,106.25,107.35Z" transform="translate(-0.48 -0.98)" fill="#858f88"/><path d="M117.54,107.39a4.58,4.58,0,0,1,0-1C116,105,114,104.7,112,104.34l0,1.88A8.89,8.89,0,0,0,117.54,107.39Z" transform="translate(-0.48 -0.98)" fill="#7e8881"/><path d="M112,106.22l0-1.88-3.3-1.12c0,.63.07,1.26.1,1.88A4.72,4.72,0,0,0,112,106.22Z" transform="translate(-0.48 -0.98)" fill="#57605d"/><path d="M140.77,98.94c1.39-1.22,2.29-2.65,1.92-4.61l.08.06c-1.59.71-2,2.38-2.92,3.61Z" transform="translate(-0.48 -0.98)" fill="#76817b"/><path d="M142.69,94.33c2.2-.73,2.33-2.5,2.22-4.4l0,0c-2,.89-2.17,2.62-2.1,4.48Z" transform="translate(-0.48 -0.98)" fill="#96999a"/><path d="M137.08,100.7l2.06.32a2.65,2.65,0,0,0,1.63-2.08l-.92-.94C138.89,98.86,137.53,99.31,137.08,100.7Z" transform="translate(-0.48 -0.98)" fill="#76817b"/><path d="M136.14,104.19a1.27,1.27,0,0,0-1.2,1.44c.08.67.6.71,1.14.41Z" transform="translate(-0.48 -0.98)" fill="#96999a"/><path d="M114.42,109.22l.38-.33c-.14-.1-.28-.28-.41-.28s-.26.2-.39.31Z" transform="translate(-0.48 -0.98)" fill="#858f88"/><path d="M139.36,105.53a.81.81,0,0,0,.1.87c.48-.06.95-.18.72-.81C140.14,105.48,139.64,105.54,139.36,105.53Z" transform="translate(-0.48 -0.98)" fill="#5e6862"/><path d="M125.44,107.88c-2.66-.41-5.14-1.77-7.92-1.47C116,105,114,104.7,112,104.34l-3.3-1.12C104.63,98,105.06,92,106,86.13c.64-4.25,2-8.39,3-12.58l-.15.06c1.17-.35,1-1.47,1.32-2.31,1.77-.42,2.35-2.16,3.56-3.22,3.07-2.69,6.31-4.94,10.64-4.87,5.1,2.3,13.29,3,17.6,6.51,2.73,2.24,2.46,6.37,3.58,10.08-1.07,3.31-.57,6.73-.6,10.11-2,.89-2.17,2.62-2.1,4.48-1.59.71-2,2.38-2.92,3.61-1,.86-2.32,1.31-2.77,2.7C133.3,103.26,129.66,106,125.44,107.88Zm-5.68-20A20.36,20.36,0,0,1,124,90.35c4.76,3.13,5.51,2.83,7.11-2.81,1-3.4.82-6.86.74-10.33,0-.66,0-1.62-1-1.69s-1,.83-1.19,1.5a12.69,12.69,0,0,1-2.64,4.11c-1.89,2.41-3.48,2.09-5.06-.37-.71-1.12-.95-3.38-2.79-2.67-1.23.46-1.3,2.47-1.55,3.91-.12.72-.12,1.46-.2,2.46C117.12,86.11,117.84,87.19,119.76,87.87Z" transform="translate(-0.48 -0.98)" fill="#f8f8f8"/><path d="M108.77,73.61c1.17-.35,1-1.47,1.32-2.31A2.43,2.43,0,0,0,108.77,73.61Z" transform="translate(-0.48 -0.98)" fill="#121516"/><path d="M117.45,84.46c-.33,1.65.39,2.73,2.31,3.41A20.36,20.36,0,0,1,124,90.35c4.76,3.13,5.51,2.83,7.11-2.81,1-3.4.82-6.86.74-10.33,0-.66,0-1.62-1-1.69s-1,.83-1.19,1.5a12.69,12.69,0,0,1-2.64,4.11c-1.89,2.41-3.48,2.09-5.06-.37-.71-1.12-.95-3.38-2.79-2.67-1.23.46-1.3,2.47-1.55,3.91C117.53,82.72,117.53,83.46,117.45,84.46Z" transform="translate(-0.48 -0.98)" fill="#313737"/><path d="M134.12,55.14c-1.11,1.65-1.73,3.73-3.7,4.62-1.07.48-2.7,1.69-3.36.15-1.6-3.75-3-1.52-4,.08-2.25,3.78-6.33,4.69-9.66,6.81-2,1.29-5.49,2.19-3.21,6A62.58,62.58,0,0,1,126.5,69.3c3.51-.27,7.14-1,10.51.85a11.89,11.89,0,0,1,7.54,2.24l.48.24c.16.08.38.28.46.23,1-.62.07-1.24-.18-1.65-1.14-1.88-2.38-3.43.83-4.82,1.64-.72,1.42-1.23-2.19-2.45-3.25.93-4.85.56-2.47-3.07a9,9,0,0,0,.71-2l-.2-.3c-2,.81-3.83,3.36-5.8,2.24-1-.57.44-3.5,1.42-5.17C136.59,54.55,135.53,53.67,134.12,55.14Z" transform="translate(-0.48 -0.98)" fill="#121516"/></g><g id="Layer_6" data-name="Layer 6"><path d="M168.43,130.44c.93-5.68,2.23-11,3.09-16.16.23-1.27.43-2.53.59-3.77s.34-2.43.46-3.62.25-2.3.32-3.42.14-2.21.16-3.27A11.65,11.65,0,0,0,172.6,97c-.29-1-.7-2.05-1-3a6.45,6.45,0,0,1-.51-2.46,4.19,4.19,0,0,1,.75-2.13,34.76,34.76,0,0,1,4-4.26A25.1,25.1,0,0,0,178.7,82a15.88,15.88,0,0,0,1.43-2.39,12.21,12.21,0,0,0,.61-1.47c.22-.56.35-1.09.54-1.76l2-2.48a11.5,11.5,0,0,1,2-.47,17.91,17.91,0,0,1,1.95-.06,13.13,13.13,0,0,1,3.76.73,17.92,17.92,0,0,1,6.2,3.75,22.56,22.56,0,0,1,6.58,11,15.58,15.58,0,0,1,.49,5.65,15.76,15.76,0,0,1-1.56,5.26,38.49,38.49,0,0,1-2.76,4.63c-1,1.47-1.9,2.86-2.74,4.25s-1.73,2.72-2.65,4-1.91,2.48-2.9,3.65-2.07,2.24-3.15,3.28-2.19,2-3.29,3a90.36,90.36,0,0,1-14.17,9.75Z" transform="translate(-0.48 -0.98)" fill="#2e2e2e"/></g><g id="Layer_5" data-name="Layer 5"><path d="M199,90.11V1H57.16v9.65S94.43,116.72,199,90.11Z" transform="translate(-0.48 -0.98)" fill="#2e2e2e"/></g></svg>